<svg xmlns="http://www.w3.org/2000/svg" width="60" height="60" viewBox="0 0 60 60">
  <polygon points="26,12 37,19 37,33 26,40 15,33 15,19" fill="none" stroke="#0a6cf5" stroke-width="1.5"/>
  <polygon points="26,16 34,21 34,31 26,36 18,31 18,21" fill="#0a6cf5" opacity="0.12"/>
  <circle cx="26" cy="26" r="3.5" fill="#0a6cf5"/>
  <polygon points="42,5 52,11 52,21 42,27 32,21 32,11" fill="none" stroke="#00c8ff" stroke-width="1"/>
  <circle cx="42" cy="16" r="2" fill="#00c8ff" opacity="0.9"/>
  <polygon points="42,29 52,35 52,45 42,51 32,45 32,35" fill="none" stroke="#00c8ff" stroke-width="1"/>
  <circle cx="42" cy="40" r="2" fill="#00c8ff" opacity="0.9"/>
  <line x1="37" y1="21" x2="32" y2="16" stroke="#0a6cf5" stroke-width="1" opacity="0.6"/>
  <line x1="37" y1="32" x2="32" y2="35" stroke="#0a6cf5" stroke-width="1" opacity="0.6"/>
  <line x1="42" y1="27" x2="42" y2="29" stroke="#00c8ff" stroke-width="0.8" opacity="0.5"/>
  <path d="M 6 26 A 24 24 0 0 1 46 5" fill="none" stroke="#0a6cf5" stroke-width="0.5" opacity="0.2" stroke-dasharray="2 4"/>
</svg>
